# xmcd
#
# Track frame offsets:
#	150
#	33744
#	58388
#	93576
#	119960
#	153411
#	183672
#	207107
#	229235
#	260811
#	280071
#	300965
#
# Disc length: 4329 seconds
#
# Revision: 0
# Processed by: cddbd v1.5.1PL0 Copyright (c) Steve Scherf et al.
# Submitted via: audiograbber 1.83.01
#
DISCID=b710e70c
DTITLE=Various Artist - various
DYEAR=1900
DGENRE=
TTITLE0=Led Zeppelin. - Since I've Been Loving You.
TTITLE1=Led Zeppelin. - Whole Lotta Love.
TTITLE2=Led Zeppelin. - Starway To Heaven.
TTITLE3=Led Zeppelin. - All My Love.
TTITLE4=Led Zeppelin. - Kashmir.
TTITLE5=Led Zeppelin. - Baby, I'm Gonna Leave You.
TTITLE6=Владимир Кузьмин. - Эй, красотка.
TTITLE7=Владимир Кузьмин. - Как ты живешь без меня?
TTITLE8=Eagles. - Hotel California. (Unplugged)
TTITLE9=Ah-a. - Turn The Lights Down.
TTITLE10=Duran Duran. - Come Undone.
TTITLE11=Garou - Je N`Attendais Que Vous
EXTD=
EXTT0=
EXTT1=
EXTT2=
EXTT3=
EXTT4=
EXTT5=
EXTT6=
EXTT7=
EXTT8=
EXTT9=
EXTT10=
EXTT11=
PLAYORDER=
